# xmcd CD database file
#
# Track frame offsets:
#	150
#	29907
#	47392
#	74277
#	95320
#	136652
#	158362
#	178710
#	200395
#
# Disc length: 2802 seconds
#
# Revision: 1
# Processed by: cddbd v1.5.2PL0 Copyright (c) Steve Scherf et al.
# Submitted via: CDex 1.70beta2
#
DISCID=6d0af009
DTITLE=J. J. Johnson - The Trombone Master
DYEAR=1989
DGENRE=Jazz
TTITLE0=Misterioso
TTITLE1=Laura
TTITLE2=What Is This Thing Called Love
TTITLE3=My Old Flame
TTITLE4=Blue Trombone
TTITLE5=What's New
TTITLE6=Satin Doll
TTITLE7=Cry Me A River
TTITLE8=Goodbye
EXTD=1957/1960 YEAR: 1989
EXTT0=
EXTT1=
EXTT2=
EXTT3=
EXTT4=
EXTT5=
EXTT6=
EXTT7=
EXTT8=
PLAYORDER=
